<svg xmlns="http://www.w3.org/2000/svg" viewBox="0 0 100.91 19.81"><defs><style>.cls-1{fill:#fff;}</style></defs><title>Asset 1</title><g id="Layer_2" data-name="Layer 2"><g id="Layer_1-2" data-name="Layer 1"><path class="cls-1" d="M6.68,12.86C6.68,10.37,0,10.68,0,5.53A5.53,5.53,0,0,1,5.29,0c2.15,0,3.6,1.42,3.6,3.83,0,2-1.18,3.75-2.44,3.75A2.5,2.5,0,0,1,4.07,4.92,3.56,3.56,0,0,1,5.53,2a.6.6,0,0,1,.27-.11A.18.18,0,0,1,6,2.07a.49.49,0,0,1-.09.22A4.38,4.38,0,0,0,5.2,4.88c0,.79.38,2.2,1.34,2.2.81,0,1.15-1.71,1.15-3.25C7.69,2.07,7,.47,5.38.47S1.6,2.48,1.6,5.53c0,4.37,6.05,3.65,6.05,7A3,3,0,0,1,4.47,15.3c-2.09,0-3.26-1.15-3.26-2.1a1.8,1.8,0,0,1,1.36-1.59c.11,0,.17.06.17.13s-.31.43-.31.94c0,.86.74,1.8,2.34,1.8A1.69,1.69,0,0,0,6.68,12.86ZM1.87,5.53c0-3.21,2.23-4.7,3.5-4.7A1.38,1.38,0,0,1,6,.94a1.42,1.42,0,0,0-.29,0C4,.92,2,2.93,2,6a2.16,2.16,0,0,0,0,.36A4.27,4.27,0,0,1,1.87,5.53Zm1.07,6.53c.1,0,.16.06.16.13s-.29.45-.29,1a1.1,1.1,0,0,1-.11-.46A1.19,1.19,0,0,1,2.94,12.06Zm5,.51a1.4,1.4,0,0,0,0-.25A2.5,2.5,0,0,1,8,13a3,3,0,0,1-3.18,2.73,5.39,5.39,0,0,1-1.28-.16,6,6,0,0,0,.88.07A3.31,3.31,0,0,0,7.92,12.57ZM6.19,2.34a.19.19,0,0,1,.13.18.49.49,0,0,1-.09.22,4.38,4.38,0,0,0-.67,2.59,1.72,1.72,0,0,0,0,.31,2.84,2.84,0,0,1-.11-.76A4,4,0,0,1,6.19,2.34Zm3,1.49s0-.48,0-.72a5,5,0,0,1,.12,1.18C9.25,6.27,8.07,8,6.81,8A2.68,2.68,0,0,1,6,7.9a1.79,1.79,0,0,0,.44,0C7.78,7.94,9.16,6.14,9.16,3.83ZM7.9,12.32v0Z"/><path class="cls-1" d="M13.36,12.41c0-1.81,1.13-3.68,1.13-4.74a.34.34,0,0,0-.36-.38c-.77,0-3,3.84-3,5.42a6.49,6.49,0,0,0,0,.69c0,.21-.31.39-.52.39s-1-.93-1-4.37c0-5.87,1.32-8.3,2.49-8.3.73,0,1.06.57,1.06,1.74,0,2.34-1.77,6.34-2.4,7.69,0,.58.06,1.06.06,1.06.18-1,2.07-5.16,3.67-5.16A1,1,0,0,1,15.63,7.6c0,1.37-1,3.08-1,4.66,0,.49.22.79.65.79,1,0,1.86-2.43,1.86-2.43s.07-.2.23-.2a.2.2,0,0,1,.22.2,1.11,1.11,0,0,1-.06.26s-1,3-2.79,3A1.34,1.34,0,0,1,13.36,12.41Zm-1.95.27c0-1.37,2-5,2.72-5,.06,0,.09.07.07.2a10.4,10.4,0,0,0-2.7,5.31,6.49,6.49,0,0,0,0,.69c0,.21-.31.39-.52.39a.27.27,0,0,1-.2-.11c.32-.12.63-.37.63-.68S11.41,13,11.41,12.68Zm-.57-3.14c.68-1.76,1.85-5.07,1.85-7.06,0-.5-.16-.73-.43-.73-.67,0-1.42,3.62-1.42,7.41Zm1.42-7.43c.07,0,.14.07.16.19-.49.49-1,2.6-1.15,5.19a4.14,4.14,0,0,1-.15.41C11.18,6.16,11.65,2.11,12.26,2.11Zm-.13,6.14a17,17,0,0,0,1.39-5.42,3,3,0,0,0,0-.45,3.54,3.54,0,0,1,.11.93,13.71,13.71,0,0,1-1,4.2Zm5.71,2.63c.09,0,.13.1.13.19a1.11,1.11,0,0,1-.06.26s-1,3-2.79,3a1.56,1.56,0,0,1-.57-.11.75.75,0,0,0,.21,0C16.29,14.28,17.34,12.26,17.84,10.88ZM15.9,7.53a1.56,1.56,0,0,1,.09.52c0,1.33-.92,3-1,4.52a.54.54,0,0,1-.09-.31C14.92,10.46,15.9,9.24,15.9,7.53Z"/><path class="cls-1" d="M17.55,8.7a1.42,1.42,0,0,1-.16-.62A2.38,2.38,0,0,1,20,6.1c1.6,0,2.77,1.08,2.77,3.93,0,2.61-1.49,3.83-2.88,3.83-1.73,0-2.77-1.22-2.77-3.31A3.87,3.87,0,0,1,17.55,8.7Zm2.34,4.46c1,0,1.69-.93,1.69-3.65,0-2.13-.74-2.81-1.56-2.81a1.5,1.5,0,0,0-1.44,1.46c0,.82.5.84.5,1.06s-.09.18-.29.18a1.37,1.37,0,0,1-.45-.07,7.79,7.79,0,0,0,0,.9C18.31,12.21,18.88,13.16,19.89,13.16ZM18.7,9.79c0,.24,0,.53,0,.89a6.46,6.46,0,0,0,0,.92,5.85,5.85,0,0,1-.14-1.37,1.91,1.91,0,0,1,0-.47h.18a.49.49,0,0,0,.52-.29c.08.07.13.13.13.2s-.09.18-.29.18A1.14,1.14,0,0,1,18.7,9.79ZM20,7.06a1.11,1.11,0,0,1,.43.09h-.07a1.52,1.52,0,0,0-1.44,1.37.66.66,0,0,1-.09-.36A1.18,1.18,0,0,1,20,7.06Zm3,3A10.6,10.6,0,0,0,23,8.88a6.87,6.87,0,0,1,.16,1.6c0,2.61-1.49,3.83-2.88,3.83a3,3,0,0,1-.92-.12,4.86,4.86,0,0,0,.56,0C21.46,14.22,23,12.82,23,10Z"/><path class="cls-1" d="M29.9,13.41c.86,0,1.55-2,1.55-4.26a14.59,14.59,0,0,0-.29-2.27c0-.52.79-.92,1.1-.92s.48.72.48,1.85c0,3.61-1.17,6.22-3,6.22-.92,0-1.62-.6-2-2.11-.3.83-.93,1.87-1.91,1.87s-2.17-.77-2.17-3.4c0-3.17.86-3.85,1.69-3.85.14,0,.23.07.23.21A10.64,10.64,0,0,0,25,10.82c0,1.93.54,2.27,1.1,2.27.72,0,1.31-1.53,1.31-2.5,0-3.17.76-3.69,1.59-3.69.14,0,.23.07.23.21a10.35,10.35,0,0,0-.45,3.71C28.78,12.77,29.32,13.41,29.9,13.41ZM26,7.2a10.64,10.64,0,0,0-.63,4.07c0,.29,0,.58,0,.79a4.27,4.27,0,0,1-.13-1.24A9.28,9.28,0,0,1,25.88,7,.2.2,0,0,1,26,7.2Zm-.11,7a2.35,2.35,0,0,0,1.86-1.42l.11.29a2,2,0,0,1-1.61,1.22,1.67,1.67,0,0,1-.52-.09Zm3.71-6.59a10.35,10.35,0,0,0-.45,3.71,6.8,6.8,0,0,0,.06,1,5.68,5.68,0,0,1-.15-1.42,9,9,0,0,1,.42-3.46A.18.18,0,0,1,29.59,7.56ZM33,6.82a5.89,5.89,0,0,1,.14,1.44c0,3.61-1.17,6.22-3,6.22a1.62,1.62,0,0,1-.59-.09h.23c1.95,0,3.22-2.76,3.22-6.58C33,7.81,33,7.17,33,6.82Z"/><path class="cls-1" d="M44,1.44c2.4,0,4.29,2.27,4.29,6.27,0,4.16-2.43,7.59-5.44,7.59S37.13,12.64,37.13,8c0-5.14,3.23-8,5.66-8,.92,0,1.2.23,1.2.4s-.1.25-.19.25A3,3,0,0,0,43,.47c-2,0-4.16,2.64-4.16,7.4,0,4.28,2,6.71,4.2,6.71s3.85-3.22,3.85-7.36C46.84,4.34,45.92,2,44,2c-1.51,0-2.21,2-2.21,3.79a4.76,4.76,0,0,0,.67,2.79.55.55,0,0,1,.1.23.16.16,0,0,1-.16.16.59.59,0,0,1-.29-.11A3.85,3.85,0,0,1,40.3,5.6,4,4,0,0,1,44,1.44ZM43,.83a2,2,0,0,1,.5.07l-.14,0c-2,0-4.16,2.64-4.16,7.4a14,14,0,0,0,.11,1.76,14.34,14.34,0,0,1-.2-2.21C39.06,4,40.7.83,43,.83Zm5.6,6.88c0-.24,0-1.07-.09-1.55a11.26,11.26,0,0,1,.18,2c0,4.16-2.43,7.59-5.44,7.59A4.54,4.54,0,0,1,42,15.59a7.24,7.24,0,0,0,.86.07C46.26,15.66,48.51,11.79,48.55,7.71ZM44,2.39a2.2,2.2,0,0,1,.68.11,1.42,1.42,0,0,0-.29,0c-1.51,0-2.21,2-2.21,3.79a7.23,7.23,0,0,0,.07,1.11,8.22,8.22,0,0,1-.16-1.56C42.05,4.1,42.72,2.39,44,2.39ZM44.21.63a.27.27,0,0,1,.14.22c0,.1-.1.25-.19.25A2.9,2.9,0,0,1,43.78,1l0,0C44,1,44.17.72,44.21.63Z"/><path class="cls-1" d="M50.87,11.92c1.73,1.66,3,3.46,3,5.58,0,1-.48,1.86-1.35,1.86-2.48,0-2.91-5.6-2.91-9.33,0-5.38,1.33-8.32,2.86-8.32.77,0,1.06.77,1.06,1.62,0,2.68-2,6.82-2.68,7.78Zm0-1.87c.32-.51,2.07-4.4,2.07-6.63,0-.32,0-.95-.41-.95C51.57,2.47,50.85,5.47,50.85,10.05Zm0,2.61c.13,2.45.56,5.56,1.71,5.56.33,0,.56-.23.56-.93A8,8,0,0,0,50.9,12.66ZM52.61,3c-.66.39-1.18,2.47-1.35,5.51l-.12.29c.07-3.82.63-6,1.33-6C52.56,2.83,52.58,2.88,52.61,3Zm1.3.79c0,2.68-2,6.82-2.68,7.78v.27l-.09-.11v-.47c.66-1,2.68-5.16,2.68-7.92V3.06A3.46,3.46,0,0,1,53.91,3.78ZM54.25,18c0,1-.48,1.86-1.35,1.86a1.64,1.64,0,0,1-.5-.09h.14c1.05,0,1.62-1,1.62-2.22,0-.29,0-.77,0-.77A5.5,5.5,0,0,1,54.25,18Z"/><path class="cls-1" d="M75.6,10.62s.08-.2.24-.2a.2.2,0,0,1,.21.2,1.29,1.29,0,0,1,0,.26s-1.26,3.56-2.84,3.56c-1.34,0-2.38-1.33-2.69-4.65-1,.27-2.21.49-3.29.74-.42,4.22-1.84,4.77-2.29,4.77a2.76,2.76,0,0,1-2.39-3c0-1.26,1.51-1.87,3.38-2.29,0-.52,0-1.09,0-1.74,0-4.61-.9-7.74-3.15-7.74-1.46,0-3.46,1.78-3.46,5.51,0,2.25,1,3.81,2.07,3.81s1.31-1.42,1.31-2.37A4.49,4.49,0,0,0,62,4.92a.4.4,0,0,1-.09-.22.18.18,0,0,1,.16-.18.65.65,0,0,1,.27.11,3.36,3.36,0,0,1,1.46,2.73c0,1.44-1,3.05-2.56,3.05S58,8.89,58,6.19C58,2,60.77,0,63,0c3.26,0,4.35,3.35,4.35,8,0,.68,0,1.29,0,1.85,1.1-.2,2.23-.38,3.19-.61,0-.47,0-.95,0-1.49C70.4,2.41,72,.9,72.94.9c.22,0,.31.13.31.23s-1.5,1.43-1.5,6.61v1c.63-.29,1-.67,1-1.21,0-.12,0-.21.12-.21s.53.27.53.45c0,.74-.67,1.24-1.66,1.62.13,2.77.61,4.28,1.58,4.28S75.6,10.62,75.6,10.62ZM62.77.94a2.38,2.38,0,0,1,.63.1h-.27c-1.46,0-3.46,1.78-3.46,5.51a8.61,8.61,0,0,0,0,.91,5.58,5.58,0,0,1-.14-1.27C59.42,3.11,61,1,62.77.94ZM64.1,7.06a3.5,3.5,0,0,1,.09.75c0,1.44-1,3.05-2.56,3.05a3.49,3.49,0,0,1-.84-.13,4.64,4.64,0,0,0,.48,0C63.05,10.77,64.15,9,64.1,7.06Zm1.76,3.83c-1.28.42-2.21,1-2.21,1.86s.43,1.91,1.08,1.91S65.72,14.22,65.86,10.89Zm-.28.47a1.13,1.13,0,0,1,0,.22C64.62,12,64,12.46,64,13.2a1.56,1.56,0,0,0,0,.3,2.72,2.72,0,0,1-.11-.75C63.92,12,64.89,11.58,65.58,11.36Zm4.66-1c-.88.2-1.82.4-2.7.61-.42,4.22-1.82,4.77-2.29,4.77a2.76,2.76,0,0,1-.63-.1h.27c1.19,0,2.2-1.83,2.54-4.82,1.1-.2,2-.38,2.81-.58Zm-2.7-1A25.17,25.17,0,0,0,67.39,5a19.94,19.94,0,0,1,.27,3.42c0,.32,0,.65,0,.95ZM72,8.28V7.74c0-3,.42-4.81,1.41-6.35a.22.22,0,0,1,.18.21c0,.16-1.5,1.42-1.5,6.59Zm.11,1.35A2.28,2.28,0,0,0,73.68,8a.33.33,0,0,1,.11.22c0,.75-.67,1.24-1.66,1.62a18.66,18.66,0,0,0,.2,2,10.23,10.23,0,0,1-.27-2.14ZM76.25,11a.19.19,0,0,1,.13.2,1,1,0,0,1-.06.25s-1,3.46-2.8,3.46a1.62,1.62,0,0,1-.58-.11.78.78,0,0,0,.22,0C74.69,14.8,75.75,12.37,76.25,11Z"/><path class="cls-1" d="M79,12.14c0,.09-.43,1.8-1.63,1.8-1,0-2.06-1-2.06-2.9,0-3.33,1.89-4.9,3.48-4.9a1.49,1.49,0,0,1,1.6,1.46c0,.29-.49.54-.7.54A.13.13,0,0,1,79.54,8c0-.12,0-.21,0-.45a.74.74,0,0,0-.83-.81c-.94,0-2.12,1.35-2.12,4.29,0,1.35.43,2.16,1,2.16s1.08-1.64,1.26-2.72c.14-.85.19-2,1.47-2a.14.14,0,0,1,.16.14,5.8,5.8,0,0,0-.45,2.45c0,1,.17,1.68.69,1.68.85,0,1.6-2.13,1.6-2.13s.07-.2.24-.2a.2.2,0,0,1,.21.2,1.29,1.29,0,0,1,0,.26s-1,2.77-2.2,2.77S79,12.26,79,12.14Zm-.23-5a.73.73,0,0,1,.36.09C78.17,7.2,77,8.55,77,11.49c0,.23,0,.45,0,.65A5.83,5.83,0,0,1,76.9,11C76.9,8.93,77.69,7.11,78.75,7.11ZM79,13l.15.19c-.24.54-.67,1.25-1.44,1.25a1.7,1.7,0,0,1-.58-.11.86.86,0,0,0,.22,0C78,14.3,78.57,13.9,79,13Zm1.71-4a.15.15,0,0,1,.17.14,5.69,5.69,0,0,0-.46,2.45,5.43,5.43,0,0,0,0,.58,3.77,3.77,0,0,1-.11-1A5.14,5.14,0,0,1,80.71,8.93Zm2.33,2c.09,0,.12.1.12.19a1.29,1.29,0,0,1,0,.26s-.94,2.77-2.2,2.77a1.62,1.62,0,0,1-.58-.11.86.86,0,0,0,.22,0C81.61,14,82.53,12.26,83,10.88Z"/><path class="cls-1" d="M85.07,12.28c0-2,1-3.91,1-5,0-.29-.11-.47-.39-.47-.78,0-2.31,2.45-2.7,4.74a5.15,5.15,0,0,0-.08.86c0,.45.08.7.08.92a.22.22,0,0,1-.24.23c-.54,0-1.15-.82-1.15-2.79,0-3.15.68-4.14,1.3-4.14.12,0,.16.06.16.15a16.65,16.65,0,0,0-.31,3.81C83,9,84.38,6.18,86,6.18a1.1,1.1,0,0,1,1.17,1.13c0,1.21-.68,3.22-.68,5,0,.61.3.79.57.79,1,0,1.86-2.43,1.86-2.43s.07-.2.23-.2a.2.2,0,0,1,.22.2,1.11,1.11,0,0,1-.06.26s-1,3-2.79,3C85.82,13.92,85.07,13.52,85.07,12.28Zm-1.86.16c0-2,1.79-5.24,2.51-5.24.09,0,.12,0,.12.11v.07c-.81.4-2.1,2.6-2.46,4.67a5.15,5.15,0,0,0-.08.86c0,.45.08.7.08.92a.23.23,0,0,1-.24.23.52.52,0,0,1-.32-.11.54.54,0,0,0,.47-.59S83.21,12.75,83.21,12.44Zm.24-5.17c0,.15-.09.38-.16,1l-.18.4a8.44,8.44,0,0,1,.21-1.53A.14.14,0,0,1,83.45,7.27Zm6.1,3.61c.09,0,.13.1.13.19a1.11,1.11,0,0,1-.06.26s-1.1,3-2.79,3a1.56,1.56,0,0,1-.57-.11.75.75,0,0,0,.21,0C88,14.28,89.05,12.26,89.55,10.88ZM87.39,7.31a1.36,1.36,0,0,1,.09.47c0,1.17-.65,3.11-.68,4.81a.53.53,0,0,1-.09-.35C86.71,10.86,87.41,8.53,87.39,7.31Z"/><path class="cls-1" d="M93.15,11.87c-.67,1.18-1.39,2-2.11,2-1.2,0-2.28-1.17-2.28-3.43,0-3,1.85-4.17,2.82-4.17a1.27,1.27,0,0,1,1.19.63V6.54c0-4.16,1-5.24,1.82-5.24.56,0,1.06.43,1.06,1.44a23,23,0,0,1-1.71,7.49c.15,1.56.47,2.57,1.12,2.57.86,0,1.67-2.18,1.67-2.18s.08-.2.24-.2a.2.2,0,0,1,.21.2,1.29,1.29,0,0,1-.05.26s-1,2.84-2.36,2.84C93.92,13.72,93.44,13,93.15,11.87ZM93,11a23.8,23.8,0,0,1-.18-2.4.34.34,0,0,1-.29.2.43.43,0,0,1-.34-.36c0-.2.23-.43.23-.88a.66.66,0,0,0-.68-.69c-.74,0-1.57,1.23-1.57,3.23s.65,2.9,1.3,2.9C91.87,13,92.43,12.14,93,11ZM91.71,7.18a.51.51,0,0,1,.29.09c-.72.08-1.5,1.28-1.5,3.23a6.8,6.8,0,0,0,.06.95,6,6,0,0,1-.15-1.4C90.41,8.52,91,7.18,91.71,7.18Zm1.35,5.35.14.34c-.57.89-1.18,1.43-1.8,1.43a2.61,2.61,0,0,1-.61-.11,1.14,1.14,0,0,0,.25,0C91.8,14.21,92.45,13.47,93.06,12.53Zm.79-3.85a21.64,21.64,0,0,0,1.21-6c0-.67-.16-.79-.4-.79-.43,0-.83,1.18-.83,4.93C93.83,7.51,93.83,8.12,93.85,8.68ZM95.9,2.5a1.82,1.82,0,0,1,.11.69,23.18,23.18,0,0,1-1.58,7.18,6.12,6.12,0,0,0,0,1.05h0a7,7,0,0,1-.18-1.24,23.54,23.54,0,0,0,1.71-7.45A1.2,1.2,0,0,0,95.9,2.5Zm1.52,8.38c.09,0,.12.1.12.19a1.29,1.29,0,0,1-.05.26s-1,2.84-2.34,2.84a1.62,1.62,0,0,1-.58-.11.82.82,0,0,0,.22,0C96,14.08,96.91,12.26,97.42,10.88Z"/><path class="cls-1" d="M97.22,5.92c0-.63.41-1.11.82-1.11s.69.23.69.88a5.81,5.81,0,0,1-.38,1.58c0,1.08,2.2,2.63,2.2,4.38a2.33,2.33,0,0,1-2.43,2.2A2.09,2.09,0,0,1,96,11.63a1,1,0,0,1,.7-1,18.53,18.53,0,0,0,.76-3.26A3.9,3.9,0,0,1,97.22,5.92Zm-.11,5c0,.67-.2.81-.2,1.28a1.05,1.05,0,0,0,1,1.06c.83,0,1.18-.66,1.18-1.64a9.55,9.55,0,0,0-1.27-3.35A16.6,16.6,0,0,1,97.11,10.91Zm1-1.57c-.24,1-.62,1.9-.65,2a7.1,7.1,0,0,1-.18,1.17.57.57,0,0,1-.11-.34,3.18,3.18,0,0,1,.09-.45,3.06,3.06,0,0,0,.11-.74A15.79,15.79,0,0,0,98,9.07Zm2.79,2.76a2.33,2.33,0,0,1-2.43,2.2,2.46,2.46,0,0,1-.76-.13,2.06,2.06,0,0,0,.4,0,2.63,2.63,0,0,0,2.7-2.56v-.16A2.57,2.57,0,0,1,100.91,12.1Zm-2.22-5A5.64,5.64,0,0,0,99,5.64a1.28,1.28,0,0,1,.09.5,6,6,0,0,1-.36,1.51c0-.12-.11-.29-.11-.29Z"/></g></g></svg>