<?xml version="1.0" encoding="utf-8"?>
<!-- Generator: Adobe Illustrator 22.0.1, SVG Export Plug-In . SVG Version: 6.00 Build 0)  -->
<svg version="1.1" id="hands" xmlns="http://www.w3.org/2000/svg" xmlns:xlink="http://www.w3.org/1999/xlink" x="0px" y="0px"
	 viewBox="0 0 440.2 636.3" style="enable-background:new 0 0 440.2 636.3;" xml:space="preserve">
<style type="text/css">
	.st0{fill:#BC9FC3;}
</style>
<path class="st0" d="M292.4,101.4c-1-1.8,0.9-5.2,1.4-7.9c0.3-1.4,0.9-2.8,0.7-4.1c-0.1-1.2-0.8-2.9-1.7-3.4c-1-0.5-3-0.2-3.9,0.5
	c-1.6,1.3-2.8,3.2-3.9,5c-2.6,4.4-4.8,9.1-7.6,13.5c-1.5,2.3-3.7,4.2-5.7,6.2c-0.5-0.3-1-0.5-1.5-0.8c0-1.6-0.3-3.4,0.1-4.9
	c2-8.1,4.2-16.2,6.2-24.3c0.7-2.6,1.6-5.2,1.5-7.8c-0.1-2.4-1.6-4.7-2.4-7c-2,1.4-4.6,2.4-5.9,4.3c-1.6,2.2-2.4,5.1-3.2,7.8
	c-2.4,7.6-4.6,15.3-7,22.9c-0.6,2-1.9,3.8-2.8,5.7c-0.6-0.1-1.3-0.1-1.9-0.2c-0.6-2.2-1.6-4.4-1.7-6.6c-0.9-11.9-1.4-23.8-2.5-35.6
	c-0.4-3.6-0.9-9.2-5.9-8.7c-5,0.4-4.3,5.9-4.3,9.6c-0.1,11.7,0.1,23.5,0,35.2c0,1.7-0.6,3.4-0.9,5.2c-0.6,0.1-1.2,0.2-1.8,0.3
	c-1-1.9-2.2-3.7-2.9-5.6c-3.4-9.3-6.4-18.8-10-28.1c-0.8-1.9-3.8-2.9-5.8-4.3c-1,2.4-2.4,4.7-3,7.2c-0.3,1.4,0.5,3.1,0.9,4.6
	c2.3,8,4.9,16,6.8,24.1c1.6,6.5,2.7,13.2,3.3,19.9c0.3,2.8-1.2,5.8-1.9,8.7c-0.8,0.3-1.6,0.6-2.4,0.9c-1-1.6-2.1-3.2-3.1-4.9
	c-1.6-2.8-3-5.6-4.7-8.4c-4.1-6.7-10.8-7.8-14.8-3.6c4.3,8.6,7.8,17,12.6,24.8c4.4,7.2,9.1,14.7,15.3,20.2c6,5.3,8.6,10.8,8.5,18.4
	c-0.2,16.2,0.1,32.3-0.1,48.5c-0.3,19.2-8.7,389.1-9.1,408.3l55.9-0.7c-3.2-26.8-6.5-403.5-9.5-430.3c-1.3-11.8-2.7-23.7-2.5-35.5
	c0.1-7.2,3.5-14.3,5.2-21.6c1.7-7.4,3-14.9,4.7-22.3c1.2-4.9,2.9-9.6,5.1-14.3L292.4,101.4z"/>
<path class="st0" d="M434.4,123.7c-0.9-1.8,0.8-5.3,1.3-8c0.3-1.4,0.8-2.8,0.6-4.2c-0.1-1.2-0.7-2.9-1.6-3.4
	c-0.9-0.5-2.7-0.2-3.6,0.5c-1.5,1.3-2.6,3.2-3.6,5.1c-2.4,4.5-4.4,9.2-6.9,13.7c-1.4,2.3-3.4,4.3-5.2,6.3c-0.5-0.3-0.9-0.5-1.4-0.8
	c0-1.6-0.3-3.4,0.1-5c1.8-8.2,3.8-16.4,5.7-24.7c0.6-2.6,1.5-5.3,1.4-7.9c-0.1-2.4-1.5-4.8-2.2-7.1c-1.8,1.4-4.2,2.4-5.4,4.4
	c-1.5,2.2-2.2,5.2-2.9,7.9c-2.2,7.7-4.2,15.5-6.4,23.2c-0.5,2-1.7,3.9-2.6,5.8c-0.5-0.1-1.2-0.1-1.7-0.2c-0.5-2.2-1.5-4.5-1.6-6.7
	c-0.8-12.1-1.3-24.1-2.3-36.1c-0.4-3.7-0.8-9.3-5.4-8.8c-4.6,0.4-3.9,6-3.9,9.7c-0.1,11.9,0.1,23.8,0,35.7c0,1.7-0.5,3.4-0.8,5.3
	c-0.5,0.1-1.1,0.2-1.6,0.3c-0.9-1.9-2-3.8-2.6-5.7c-3.1-9.4-5.8-19.1-9.1-28.5c-0.7-1.9-3.5-2.9-5.3-4.4c-0.9,2.4-2.2,4.8-2.7,7.3
	c-0.3,1.4,0.5,3.1,0.8,4.7c2.1,8.1,4.5,16.2,6.2,24.4c1.5,6.6,2.5,13.4,3,20.2c0.3,2.8-1.1,5.9-1.7,8.8c-0.7,0.3-1.5,0.6-2.2,0.9
	c-0.9-1.6-1.9-3.2-2.8-5c-1.5-2.8-2.7-5.7-4.3-8.5c-3.7-6.8-9.9-7.9-13.5-3.7c3.9,8.7,7.1,17.2,11.5,25.2c4,7.3,8.3,14.9,14,20.5
	c5.5,5.4,7.9,11,7.8,18.7c-0.2,16.4,0.1,32.8-0.1,49.2c-0.3,19.5-7.9,394.7-8.3,414.2l51-0.7c-2.9-27.2-5.9-409.3-8.7-436.5
	c-1.2-12-2.5-24-2.3-36c0.1-7.3,3.2-14.5,4.7-21.9c1.6-7.5,2.7-15.1,4.3-22.6c1.1-5,2.6-9.7,4.7-14.5L434.4,123.7z"/>
<path class="st0" d="M371.7,83c-1.1-1.9,1-5.6,1.5-8.4c0.3-1.5,1-3,0.7-4.4c-0.1-1.3-0.9-3.1-1.8-3.6c-1.1-0.5-3.2-0.2-4.2,0.5
	c-1.7,1.4-3,3.4-4.2,5.3c-2.8,4.7-5.1,9.7-8.1,14.4c-1.6,2.5-4,4.5-6.1,6.6c-0.5-0.3-1.1-0.5-1.6-0.9c0-1.7-0.3-3.6,0.1-5.2
	c2.1-8.7,4.5-17.3,6.6-26c0.7-2.8,1.7-5.6,1.6-8.3c-0.1-2.6-1.7-5-2.6-7.5c-2.1,1.5-4.9,2.6-6.3,4.6c-1.7,2.4-2.6,5.4-3.4,8.3
	c-2.6,8.1-4.9,16.3-7.5,24.5c-0.6,2.1-2,4.1-3,6.1c-0.6-0.1-1.4-0.1-2-0.2c-0.6-2.4-1.7-4.7-1.8-7.1c-1-12.7-1.5-25.4-2.7-38
	c-0.4-3.8-1-9.8-6.3-9.3c-5.3,0.4-4.6,6.3-4.6,10.3c-0.1,12.5,0.1,25.1,0,37.6c0,1.8-0.6,3.6-1,5.6c-0.6,0.1-1.3,0.2-1.9,0.3
	c-1.1-2-2.4-4-3.1-6c-3.6-9.9-6.8-20.1-10.7-30c-0.9-2-4.1-3.1-6.2-4.6c-1.1,2.6-2.6,5-3.2,7.7c-0.3,1.5,0.5,3.3,1,4.9
	c2.5,8.5,5.2,17.1,7.3,25.7c1.7,6.9,2.9,14.1,3.5,21.3c0.3,3-1.3,6.2-2,9.3c-0.9,0.3-1.7,0.6-2.6,1c-1.1-1.7-2.2-3.4-3.3-5.2
	c-1.7-3-3.2-6-5-9c-4.4-7.2-11.5-8.3-15.8-3.8c4.6,9.2,8.3,18.2,13.5,26.5c4.7,7.7,9.7,15.7,16.3,21.6c6.4,5.7,9.2,11.5,9.1,19.7
	c-0.2,17.3,0.1,34.5-0.1,51.8c-0.3,20.5-1,396.8-1.4,417.4h51.4c-3.4-28.6-6.9-413-10.1-441.6c-1.4-12.6-2.9-25.3-2.7-37.9
	c0.1-7.7,3.7-15.3,5.6-23.1c1.8-7.9,3.2-15.9,5-23.8c1.3-5.2,3.1-10.3,5.4-15.3L371.7,83z"/>
<path class="st0" d="M218.7,133.8c-2.1,2.9-3.5,6.2-5.6,9c-1.2,1.6-3.2,2.5-4.8,3.8c-1-1.8-2.8-3.5-2.7-5.3c0.2-6,0.4-12.1,1.8-17.9
	c2.6-10.5,6.2-20.8,8.9-31.2c0.9-3.3,1.7-8-2.9-8.8c-1.9-0.3-4.8,3.1-6.6,5.3c-1.5,1.9-2.1,4.5-2.9,6.8c-2.3,6.6-4.3,13.2-6.6,19.7
	c-0.8,2.1-2.3,3.9-3.4,5.8c-0.6-0.2-1.2-0.4-1.7-0.5c-0.3-2-0.8-4-0.8-5.9c0-10.3,0.1-20.6,0.1-30.9c0-2.5,0.2-5.1-0.5-7.4
	c-0.7-2.1-2.6-3.8-3.9-5.7c-1.7,1.6-4.2,2.9-5,4.8c-1.2,3.1-1.6,6.5-1.8,9.9c-0.8,10.1-1.2,20.2-2,30.2c-0.1,1.8-1.7,3.5-2.6,5.2
	c-1.3-1.4-3.2-2.5-3.8-4.2c-3.3-9.2-5.3-19-9.6-27.6c-3.2-6.5-3.9-11.1,2.1-15.6c0.2-0.1,0.1-0.7,0.1-1c-5.3-4.3-11.1-3.1-15,3.1
	c-2,3.2-3.6,6.5-5.8,9.5c-1.9,2.6-4.3,2.4-4.8-0.9c-0.7-3.8-1.3-7.9-0.4-11.6c2.9-12.3,6.6-24.3,9.7-36.5c0.9-3.5,2.4-8.3-2.3-9.8
	c-4.4-1.4-5.8,3.4-7,6.5c-3,8-5.5,16.1-8.4,24.2c-0.7,1.9-2.1,3.6-3.1,5.4c-0.6-0.2-1.1-0.4-1.7-0.5c-0.2-2-0.5-4-0.5-6.1
	c0-10.5,0.2-21,0.1-31.5c-0.1-3.7,0.8-9.4-4-9.7c-5-0.4-5.6,5.3-5.9,9.3c-1,11-1.3,22-2.3,33c-0.2,1.9-1.9,3.6-3,5.4
	c-1.1-1.4-2.6-2.7-3.2-4.4c-3.1-9.1-5.7-18.3-8.9-27.4c-1-3-2.6-7.4-6.8-5.6c-1.6,0.7-1.6,5.4-2.2,8.3c-0.1,0.8,0.3,1.7,0.6,2.6
	c2.2,8.2,4.4,16.5,6.4,24.8c0.4,1.8,0.3,3.7,0.4,5.5c-0.6,0.2-1.2,0.5-1.8,0.7c-1.9-2.2-4-4.2-5.6-6.7c-2.9-4.7-5.2-9.8-8.3-14.3
	c-1.1-1.6-4-2-6-3c-0.4,2.1-1.6,4.3-1.1,6.1c1.4,4.7,3.6,9.2,5.5,13.9c2.4,6.1,5.3,12,7.1,18.3c3.2,11.1,5.6,22.3,8.3,33.5
	c0.7,3,1.2,6,1.9,9.5c-13.9-1.2-12.6,13.7-21.8,18.6c-0.8-2.5-2-4.6-1.9-6.7c0.3-5.8,0.5-11.7,1.9-17.4c2.4-10,5.7-19.8,8.2-29.8
	c0.9-3.6,2.5-8.7-2.4-10.2c-4.7-1.4-5.9,3.8-7.1,7c-3.1,8.1-5.4,16.5-8.3,24.7c-0.7,2.1-2.2,3.8-3.4,5.7c-0.6-0.2-1.1-0.4-1.7-0.6
	c-0.1-2-0.4-4.1-0.4-6.1c0.1-10,0.3-19.9,0.2-29.9c0-3.3-0.4-6.7-1.2-10c-0.3-1.2-1.9-2.9-3-3.1c-1.2-0.1-3.3,1-3.7,2.2
	c-1.3,3.3-2.5,6.7-2.7,10.2c-0.9,10.8-1.3,21.6-2.1,32.4c-0.1,1.9-1.5,3.8-2.3,5.6c-0.5-0.1-1.1-0.1-1.6-0.2
	c-0.8-1.9-1.8-3.7-2.4-5.6c-2.9-9.3-5.6-18.7-8.7-27.9c-1-3.1-2.4-7.3-6.7-6.1c-4.4,1.3-3,5.8-2.3,8.7c2,9.4,4.6,18.6,6.8,27.9
	c0.5,2-0.1,4.2-0.1,6.3c-1.8-1.2-3.9-2.1-5.3-3.7c-1.7-2-2.8-4.5-4-6.9c-2-3.6-3.6-7.4-6-10.6c-1.2-1.6-4-1.9-6-2.9
	c-0.4,2.1-1.7,4.4-1.1,6.1c2.1,6.2,4.9,12.2,7.2,18.3c2.1,5.4,4.2,10.9,5.7,16.5c1.8,6.8,2.8,13.9,4.4,20.8
	c2.4,10.1,6.8,19.8,5.4,30.7c-4,33-7.8,416-11.7,449h45.9c-0.3-33.9-0.8-417.8-0.7-451.8c0-3.8,1.8-8.9,4.5-11.3
	c10.9-9.1,17.9-20.5,23.1-33.3c0.9-2.3,2.1-4.5,3.2-6.7c0.1-0.2,0.5-0.3,1.6-0.8c-1.1,10-2.1,19.6-3.3,29.2
	c-5.1,40.3-15.5,473.5-15.5,474.7h55.5c-1.1-34.7-2.3-419.3-3.1-454c-0.4-18.1-0.1-36.3-0.3-54.4c-0.1-6.8,2.9-11.5,9.4-14.5
	c4.2,10.1,10.5,19.2,11.9,30.5c0.9,7.7,2.7,15.5,5.7,22.7c5.5,13.1,4.4,26.4,2.7,39.8c-6,32.1-19.2,428.5-19.2,430h58.1
	c-0.2-4.6-0.4-359.2-0.5-363.9c-0.5-27.4-1-54.7-1.3-82.1c-0.1-5.5,2.2-9.8,6.5-13.9c6.6-6.2,12.7-13.3,17.7-20.9
	c5.2-7.8,9-16.6,13.5-25.3C229.2,127.5,222.7,128.2,218.7,133.8z M145,106.7c2.6-4.3,5-8.1,8.1-13.1c2.8,10.9,6.2,20.7,6.8,31.2
	C151.2,121.3,150,112.5,145,106.7z"/>
</svg>
